<?xml version="1.0" ?><svg style="enable-background:new 0 0 100 100;" version="1.1" viewBox="0 0 100 100" xml:space="preserve" xmlns="http://www.w3.org/2000/svg" xmlns:xlink="http://www.w3.org/1999/xlink"><style type="text/css">
	.st0{fill:#FFFFFF;}
	.st1{fill:none;stroke:#000000;stroke-width:3;stroke-linecap:round;stroke-linejoin:round;stroke-miterlimit:10;}
	
		.st2{fill-rule:evenodd;clip-rule:evenodd;fill:none;stroke:#000000;stroke-width:3;stroke-linecap:round;stroke-linejoin:round;stroke-miterlimit:10;}
	.st3{fill-rule:evenodd;clip-rule:evenodd;}
	
		.st4{fill-rule:evenodd;clip-rule:evenodd;fill:none;stroke:#040404;stroke-width:3;stroke-linecap:round;stroke-linejoin:round;stroke-miterlimit:10;}
	.st5{fill-rule:evenodd;clip-rule:evenodd;fill:#040404;}
	.st6{fill:none;}
	.st7{fill:none;stroke:#000000;stroke-width:3;stroke-miterlimit:10;}
	.st8{fill:none;stroke:#FFFFFF;stroke-miterlimit:10;}
</style><g id="Layer_1"/><g id="Layer_2"><g><path d="M95.12,25.044c-0.797-0.127-1.539,0.415-1.665,1.207l-8.774,55.1c-0.005,0.031-0.009,0.067-0.012,0.098    c-0.004,0.044-0.442,4.385-3.358,5.072c-3.181,0.746-9.264-2.946-10.565-3.986c-0.233-0.174-0.984-0.666-2.663-1.763    c-4.886-3.192-16.327-10.668-21.039-14.655c-1.833-1.477-2.029-3.497,0.271-5.358c8.329-7.635,18.512-17.333,24.763-23.584    c1.234-1.234,4.071-4.882,2.396-6.906c-1.423-1.72-4.426-0.772-10.356,3.26L30.925,55.893c-1.551,1.092,0.005,3.454,1.625,2.412    c0.346,0.491,48.056-34.248,37.472-23.186c-6.225,6.226-16.371,15.887-24.648,23.475c-3.469,2.94-3.604,6.83-0.217,9.738    c4.856,4.109,15.986,11.381,21.334,14.875c1.253,0.819,2.334,1.525,2.473,1.628c1.078,0.861,6.884,4.686,11.461,4.685    c5.545,0.155,7.109-6.409,7.133-7.754c0,0,8.767-55.057,8.767-55.057C96.453,25.916,95.912,25.171,95.12,25.044z"/><path d="M95.448,11.557c-2.828-2.123-7.244-0.497-7.764-0.295c-12.31,5.099-64.12,26.557-78.603,32.476    c-6.558,2.313-8.673,6.781-4.244,9.885c0.094,0.06,0.194,0.107,0.299,0.143c0.082,0.028,8.347,2.858,15.355,4.96    c1.846,0.512,2.654-2.199,0.836-2.785c-6.358-1.907-13.769-4.421-15.054-4.86c-2.101-1.6-0.009-3.002,3.89-4.645    c14.663-5.994,66.105-27.3,78.597-32.474c2.414-0.823,6.418-1.485,5.796,3.224c-0.071,0.8,0.521,1.505,1.321,1.576    c0.788,0.071,1.506-0.52,1.576-1.32C97.693,14.716,97.019,12.736,95.448,11.557z"/></g></g></svg>